<svg xmlns="http://www.w3.org/2000/svg" version="1.2" viewBox="0 0 802 755" style="max-width: 400px; float: right;">
    <defs>
        <marker id="circleMarker" overflow="visible">
            <circle r="2" fill="#fff" stroke="#000" stroke-width="1"></circle>
        </marker>
        <marker id="lineMarker" overflow="visible" orient="auto">
            <path d="M0 3V-3" fill="none" stroke="#000" stroke-width="1"></path>
        </marker>
        <filter id="dropShadow">
            <feDropShadow dx="2" dy="2" stdDeviation="1" flood-color="grey"></feDropShadow>
        </filter>
        <path id="leftArrow" d="M0 0h67" fill="none" marker-start="url(#lineMarker)" marker-end="url(#circleMarker)" stroke-width="2.5"></path>
        <path id="rightArrow" d="M67 0h-67" fill="none" marker-start="url(#lineMarker)" marker-end="url(#circleMarker)" stroke-width="2.5"></path>
    </defs>
    <g fill="none" stroke="#000" font-family="sans-serif">
        <!-- Page -->
        <g fill="#000" transform="translate(180 20)">
            <path fill="#fff" stroke-width="2" d="M0 0h511v712H0z" filter="url(#dropShadow)"></path>
            <!-- Logo -->
            <g transform="translate(-4 -3)">
                <path d="m787.3 105.2c0-21-16.8-37.5-38-37.5-20.9 0-38 16.5-38 37.5s17.1 37.5 38 37.5c21.2 0 38-16.5 38-37.5m31-61.4v122.9h-31.6v-11.1c-11 9.1-24.9 14.2-40 14.2-37.4 0-66.6-28.7-66.6-64.6 0-35.8 29.3-64.6 66.6-64.6 15.1 0 29 5.1 40 14.2v-11h31.6m105 95h-23.8c-7.2 0-11.9-3.1-11.9-9.7v-57.5h35.6v-27.8h-35.6v-35h-31.9v35h-24v27.9h24v65.3c0 16.5 11.9 29.6 33.3 29.6h34.2v-27.8h0.1m72 31c36.5 0 57.1-17.1 57.1-40.7 0-16.8-12.2-29.3-37.7-34.7l-27-5.4c-15.6-2.8-20.6-5.7-20.6-11.4 0-7.4 7.5-11.9 21.4-11.9 15.1 0 26.1 4 29.3 17.6h31.6c-1.7-25.6-20.6-42.7-58.8-42.7-33 0-56.2 13.4-56.2 39.3 0 17.9 12.8 29.6 40.3 35.3l30.1 6.8c11.9 2.3 15.1 5.4 15.1 10.2 0 7.7-9 12.5-23.5 12.5-18.2 0-28.7-4-32.7-17.6h-31.9c4.7 25.6 24.1 42.7 63.5 42.7m-442.7-169.6h119.1v28.4h-86.9v40.7h84.6v27.6h-84.6v41.2h86.9v28.4h-119.1v-166.3" fill-rule="nonzero" transform="matrix(.1388 0 0 .1388 24 22.2)" fill="#06c167" stroke="none"></path>
                <path d="m496 66.7v-22.3h-8.5c-13.5 0-23.5 6.2-29.5 15.9v-15h-24.2v121.1h24.4v-68.8c0-18.8 11.6-30.9 27.6-30.9h10.2m-175.6 28c4.4-18.5 19.6-30.9 37.7-30.9s33.4 12.3 37.5 30.9h-75.2m38.2-51.7c-36 0-63.4 28.7-63.4 62.9 0 36.1 28.5 63.2 65.6 63.2 22.5 0 40.9-9.7 53.2-25.9l-17.7-12.8c-9.2 12.1-21.3 17.8-35.6 17.8-20.8 0-37.5-14.7-40.9-34.4h100.4v-7.8c0.1-36.2-26-63-61.6-63m-139.6 105.2c-23.7 0-42.6-18.8-42.6-42 0-23.5 19.1-42 42.6-42 23.2 0 42.3 18.5 42.3 42 0.1 23.2-19 42-42.3 42m-66.5 18.3h24.2v-15.2c11.1 11.2 26.9 18 44 18 36.3 0 64.8-28.3 64.8-63.2 0-35.1-28.5-63.4-64.8-63.4-17.2 0-32.7 6.9-43.8 18v-60.5h-24.4v166.3m-85.9-19.5c23.5 0 41.6-17.8 41.6-44.2v-102.6h25.4v166.2h-25.2v-15.4c-11.4 11.6-27.1 18.3-44.8 18.3-36.3 0-64.1-25.9-64.1-65.1v-104h25.5v102.6c0 26.9 17.9 44.2 41.6 44.2" fill-rule="nonzero" transform="matrix(.1388 0 0 .1388 24 22.2)" fill="#142328" stroke="none"></path>
            </g>
            <!-- Menu Tabs -->
            <g fill="#555" stroke="none" font-weight="400" transform="translate(20 80)">
                <path d="M0 37h470" stroke="#ccc" stroke-width="1"></path>
                <path d="M0 36h129" stroke="#000" stroke-width="2"></path>
                <text x="0" y="0" font-size="16" fill="#000">
                Brunch
                </text>
                <text x="0" y="20" font-size="12" fill="#000">
                9:00 AM - 1:00 PM
                </text>
                <text x="140" y="0" font-size="16">
                Breakfast
                </text>
                <text x="140" y="20" font-size="12">
                Mon 8:00 AM – 10:30 AM
                </text>
                <text x="309" y="0" font-size="16">
                Lunch
                </text>
                <text x="309" y="20" font-size="12">
                Mon 10:30 AM – 3:00 PM
                </text>
            </g>
            <!-- Category Tabs -->
            <text x="24" y="153" font-size="14" font-weight="400" stroke="none" fill="#000" xml:space="preserve">
Egg Dishes         Soft Drinks         Alcoholic Drinks
            </text>
            <!-- Categories -->
            <g transform="translate(20 200)">
                <text font-size="24" font-weight="400" stroke="none" fill="#000">
                  Egg Dishes
                </text>
                <g fill="#000" font-weight="400" stroke="none" transform="translate(0 20)">
                    <path fill="none" stroke="#000" stroke-width=".1" d="M0 0h470v95H0z"></path>
                    <text x="11" y="26" font-size="16">
                    Scrambled Eggs
                    </text>
                    <text x="11" y="52" font-size="13" fill="gray">
                    Made with the freshest organic eggs.
                    </text>
                    <text x="11" y="79" font-size="14">
                    $7.99
                    </text>
                </g>
                <g fill="#000" font-weight="400" stroke="none" transform="translate(0 130)">
                    <path fill="none" stroke="#000" stroke-width=".1" d="M0 0h470v95H0z"></path>
                    <text x="11" y="26" font-size="16">
                Eggs Benedict
                    </text>
                    <text x="11" y="52" font-size="13" fill="gray">
                Made with the juciest canadian bacon.
                    </text>
                    <text x="11" y="79" font-size="14">
                $7.99
                    </text>
                </g>
            </g>
            <g transform="translate(20 465)">
                <text font-size="24" font-weight="400" stroke="none" fill="#000">
                  Soft Drinks
                </text>
                <g fill="#000" font-weight="400" stroke="none" transform="translate(0 20)">
                    <path fill="none" stroke="#000" stroke-width=".1" d="M0 0h470v95H0z"></path>
                    <text x="11" y="26" font-size="16">
                    Orange Juice
                    </text>
                    <text x="11" y="52" font-size="13" fill="gray">
                    Made with the freshest organic oranges.
                    </text>
                    <text x="11" y="79" font-size="14">
                    $2.99
                    </text>
                </g>
                <g fill="#000" font-weight="400" stroke="none" transform="translate(0 130)">
                    <path fill="none" stroke="#000" stroke-width=".1" d="M0 0h470v95H0z"></path>
                    <text x="11" y="26" font-size="16">
                    Drip Coffee
                    </text>
                    <text x="11" y="52" font-size="13" fill="gray">
                    The best American coffee. Served hot.
                    </text>
                    <text x="11" y="79" font-size="14">
                    $1.99
                    </text>
                </g>
            </g>
        </g>
        <!-- Annotations -->
        <g font-family="monospace" font-size="21" dominant-baseline="middle">
            <use href="#leftArrow" x="125" y="104"></use>
            <text x="115" y="104" stroke="none" fill="#00f" text-anchor="end">
                menu
            </text>
            <use href="#leftArrow" x="125" y="214"></use>
            <text x="115" y="214" stroke="none" fill="#00f" text-anchor="end">
                category
            </text>
            <use href="#leftArrow" x="125" y="478"></use>
            <text x="115" y="478" stroke="none" fill="#00f" text-anchor="end">
                category
            </text>
            <use href="#rightArrow" x="660" y="254"></use>
            <text x="737" y="254" stroke="none" fill="#00f">
                item
            </text>
            <use href="#rightArrow" x="660" y="363"></use>
            <text x="737" y="363" stroke="none" fill="#00f">
                item
            </text>
            <use href="#rightArrow" x="660" y="520"></use>
            <text x="737" y="520" stroke="none" fill="#00f">
                item
            </text>
            <use href="#rightArrow" x="660" y="630"></use>
            <text x="737" y="630" stroke="none" fill="#00f">
                item
            </text>
        </g>
    </g>
</svg>