<svg xmlns="http://www.w3.org/2000/svg" xmlns:xlink="http://www.w3.org/1999/xlink" viewBox="0 0 1314 1604" style="max-width:1314px" font-size="11pt" font-family="sans-serif">
  <defs>
      <marker id="open-arrow-head-gray" orient="auto-start-reverse" overflow="visible" stroke="gray" fill="none">
        <path d="M-10 -5L0 0 -10 5"></path>
      </marker>
      <marker id="solid-arrow-head" orient="auto-start-reverse" overflow="visible">
        <path d="M0 0l-10 -5 0 10z"></path>
      </marker>
      <marker id="solid-arrow-head-green" orient="auto-start-reverse" overflow="visible" fill="green">
        <path d="M0 0l-10 -5 0 10z"></path>
      </marker>
      <marker id="solid-arrow-head-red" orient="auto-start-reverse" overflow="visible" fill="red">
        <path d="M0 0l-10 -5 0 10z"></path>
      </marker>
  </defs>
  <path fill="#fcc" d="M234 1016h927v159H234zM234 1201h927v159H234z"></path>
  <path fill="none" stroke="gray" d="M41 95v1510" stroke-width="1.5" stroke-dasharray="14 6"></path>
  <path fill="none" stroke="#000" d="M304 95v1510M1099 95v1448" stroke-width="1.5" stroke-dasharray="14 6"></path>
  <text font-weight="bold" x="9" y="90">
    Customer
  </text>
  <path fill="#fff" stroke="#000" d="M243 30h123v65H243V30z" stroke-width="2.8"></path>
  <text font-weight="bold" x="270" y="60">
    Uber Eats
  </text>
  <text font-weight="bold" x="262" y="77">
    Marketplace
  </text>
  <path fill="#fff" stroke="#000" d="M948 12h302v83H948V12z" stroke-width="2.8"></path>
  <text font-weight="bold" x="1057" y="42">
    Partner App
  </text>
  <text x="967" y="60">
    Configuration: &lt;APP_WEBHOOK_URL&gt;
  </text>
  <text x="984" y="77">
    Authorized Scope(s):
  </text>
  <text font-family="monospace" x="1125" y="77">
    eats.order
  </text>
  <path fill="#fff" stroke="#000" d="M295 170h18v1417h-18V170m795 110h18v1147h-18V280" stroke-width="1.5"></path>
  <text font-style="italic" x="64" y="146">
    Customer places order via
  </text>
  <text font-style="italic" x="64" y="163">
    UberEats app or UberEats.com.
  </text>
  <path fill="none" stroke="#000" d="M41 170h251" stroke-width="1.5" marker-end="url(#solid-arrow-head)"></path>
  <text x="380" y="260">
    POST <a xlink:href="https://developer.uber.com/docs/eats/guides/webhooks" xlink:title="View Developer Documentation">&lt;APP_WEBHOOK_URL&gt;</a>
  </text>
  <text font-weight="bold" x="368" y="260">
    1
  </text>
  <text font-family="monospace" x="380" y="274">
    {event_id: 'XXX', event_type: 'orders.notification', meta: {resource_id: &lt;ORDER_UUID&gt;, …}, …}
  </text>
  <path fill="none" stroke="#000" d="M313 280h776" stroke-width="1.5" marker-end="url(#solid-arrow-head)"></path>
  <text fill="gray" x="631" y="349">
    HTTP 200 SUCCESS
  </text>
  <path fill="none" stroke="gray" d="M1090 356H316" stroke-width="1.5" stroke-dasharray="7" marker-end="url(#open-arrow-head-gray)"></path>
  <text x="450" y="398">
    GET <a xlink:href="https://developer.uber.com/docs/eats/api/v2/get-eats-order-orderid" xlink:title="View Developer Documentation">https://api.uber.com/v2/eats/order/&lt;ORDER_UUID&gt;</a>
  </text>
  <text font-weight="bold" x="437" y="398">
    2
  </text>
  <path fill="none" stroke="#000" d="M1090 405H316" stroke-width="1.5" marker-end="url(#solid-arrow-head)"></path>
  <text fill="gray" x="420" y="447">
    HTTP 200 SUCCESS
  </text>
  <text fill="gray" font-family="monospace" x="420" y="461">
    {id: &lt;ORDER_UUID&gt;, display_id: 'ABC123', type: 'DELIVERY_BY_UBER', cart: {…}, …}
  </text>
  <path fill="none" stroke="gray" d="M313 467h774" stroke-width="1.5" stroke-dasharray="7"></path>
  <path fill="none" stroke="gray" d="M1075 460l14 7-14 8" stroke-width="1.5"></path>
  <text x="349" y="557">
    POST <a xlink:href="https://developer.uber.com/docs/eats/api/v1/post-eats-orders-orderid-acceptposorder" xlink:title="View Developer Documentation">https://api.uber.com/v1/eats/orders/&lt;ORDER_UUID&gt;/accept_pos_order</a>
  </text>
  <text font-weight="bold" x="336" y="557">
    3
  </text>
  <text font-family="monospace" x="349" y="571">
    {reason: 'Accepted by Suzie.', external_reference_id?: 'MY-ORDER-ID42', pickup_time?: &lt;UNIXTIME_SECS&gt;}
  </text>
  <path fill="none" stroke="green" d="M1090 577H316" stroke-width="1.5" marker-end="url(#solid-arrow-head-green)"></path>
  <text fill="gray" x="618" y="619">
    HTTP 204 NO CONTENT
  </text>
  <path fill="none" stroke="gray" d="M313 626h774" stroke-width="1.5" stroke-dasharray="7" marker-end="url(#open-arrow-head-gray)"></path>
  <text x="386" y="716">
    POST <a xlink:href="https://developer.uber.com/docs/eats/api/v1/post-eats-orders-orderid-denyposorder">https://api.uber.com/v1/eats/orders/&lt;ORDER_UUID&gt;/deny_pos_order</a>
  </text>
  <text font-weight="bold" x="374" y="716">
    3
  </text>
  <text font-family="monospace" x="386" y="730">
    {reason: {explanation: 'Items out of stock.', out_of_stock_items?: ['1234-…'], …}}
  </text>
  <path fill="none" stroke="red" d="M1090 736H316" stroke-width="1.5" marker-end="url(#solid-arrow-head-red)"></path>
  <text fill="gray" x="618" y="778">
    HTTP 204 NO CONTENT
  </text>
  <path fill="none" stroke="gray" d="M313 785h774" stroke-width="1.5" stroke-dasharray="7" marker-end="url(#open-arrow-head-gray)"></path>
  <text x="349" y="875">
    Implicitly self-cancels order (no webhook sent).
  </text>
  <text font-weight="bold" x="336" y="875">
    3
  </text>
  <path fill="none" stroke="red" d="M313 882h70v23h-67" stroke-width="1.5" marker-end="url(#solid-arrow-head-red)"></path>
  <path fill="#fff" stroke="#000" d="M1108 969h8m0-20h174l16 16v24h-190v-40m174 0v16h16" stroke-width="1.5"></path>
  <text x="1141" y="974">
    Start Preparing Order
  </text>
  <text font-style="italic" x="69" y="965">
    Notify that order was accepted
  </text>
  <text font-style="italic" x="69" y="982">
    and is being prepared.
  </text>
  <path fill="none" stroke="#000" d="M295 989H43" stroke-width="1.5" marker-end="url(#solid-arrow-head)"></path>
  <path fill="#FCC" d="M403 1063h597v22H403z"></path>
  <path fill="#FCC" d="M415 1081h470v18H415z"></path>
  <text x="418" y="1079">
    POST <a xlink:href="https://developer.uber.com/docs/eats/api/v1/post-eats-orders-orderid-cancel" xlink:title="View Developer Documentation">https://api.uber.com/v1/eats/orders/&lt;ORDER_UUID&gt;/cancel</a>
  </text>
  <text font-weight="bold" x="406" y="1079">
    4
  </text>
  <text font-family="monospace" x="418" y="1093">
    {reason: 'CUSTOMER_CALLED_TO_CANCEL', details?: 'Double ordered.'}
  </text>
  <path fill="none" stroke="#000" d="M1090 1099H316" stroke-width="1.5" marker-end="url(#solid-arrow-head)"></path>
  <path fill="#FCC" d="M628 1126h147v23H628z"></path>
  <text fill="gray" x="631" y="1141">
    HTTP 200 SUCCESS
  </text>
  <path fill="none" stroke="gray" d="M313 1148h774" stroke-width="1.5" stroke-dasharray="7" marker-end="url(#open-arrow-head-gray)"></path>
  <path fill="#FCC" d="M446 1249h376v22H446z"></path>
  <path fill="#FCC" d="M459 1266h498v18H459z"></path>
  <text x="461" y="1265">
    POST <a xlink:href="https://developer.uber.com/docs/eats/guides/webhooks" xlink:title="View Developer Documentation">&lt;APP_WEBHOOK_URL&gt;</a>
  </text>
  <text font-weight="bold" x="449" y="1265">
    5
  </text>
  <text font-family="monospace" x="461" y="1279">
    {event_type: 'orders.cancel', meta: {resource_id: &lt;ORDER_UUID&gt;, …}, …}
  </text>
  <path fill="none" stroke="#000" d="M313 1285h774" stroke-width="1.5" marker-end="url(#solid-arrow-head)"></path>
  <path fill="#FCC" d="M628 1311h147v23H628z"></path>
  <text fill="gray" x="631" y="1327">
    HTTP 200 SUCCESS
  </text>
  <path fill="none" stroke="gray" d="M1090 1334H316" stroke-width="1.5" stroke-dasharray="7" marker-end="url(#open-arrow-head-gray)"></path>
  <path fill="#fff" stroke="#000" d="M295 1407h-9m-210-20h195l15 16v24H76v-40m195 0v16h15" stroke-width="1.5"></path>
  <text x="101" y="1411">
    Courier Picked-Up Order
  </text>
  <text font-style="italic" x="65" y="1469">
    Notify that order was picked-up.
  </text>
  <path fill="none" stroke="#000" d="M295 1476H43" stroke-width="1.5" marker-end="url(#solid-arrow-head)"></path>
  <path fill="#fff" stroke="#000" d="M295 1523h-9m-195-20h180l15 16v24H91v-40m180 0v16h15" stroke-width="1.5"></path>
  <text x="115" y="1527">
    Courier Delivers Order
  </text>
  <path fill="none" stroke="#000" d="M1083 1527l32 32m0-32l-32 32" stroke-width="2.8"></path>
  <path fill="none" stroke="#000" d="M242 197h918v110H242V197z" stroke-width="2.5"></path>
  <path fill="#fff" stroke="#000" d="M242 197v21h60l11-11v-10h-71" stroke-width="2.5"></path>
  <text font-weight="bold" x="260" y="211">
    loop
  </text>
  <text font-size="70%" font-weight="bold" x="331" y="211">
    [Re-sends with new event_id if no response after 1 sec, after which the event will be retried with exponential back-off starting at 2 secs, up to 7 total events.]
  </text>
  <path fill="none" stroke="#000" d="M234 494h926v437H234V494z" stroke-width="2.5"></path>
  <path fill="#fff" stroke="#000" d="M234 494v21h49l10-11v-10h-59" stroke-width="2.5"></path>
  <text font-weight="bold" x="251" y="508">
    alt
  </text>
  <text font-weight="bold" x="311" y="508">
    [Accept Order]
  </text>
  <path fill="none" stroke="#000" d="M234 653h926" stroke-width="2.5" stroke-dasharray="4"></path>
  <text font-weight="bold" x="311" y="667">
    [Deny Order]
  </text>
  <path fill="none" stroke="#000" d="M234 812h926" stroke-width="2.5" stroke-dasharray="4"></path>
  <text font-weight="bold" x="311" y="826">
    [Order Timeout If Partner Doesn't Accept or Deny Within 11.5 mins]
  </text>
  <path fill="none" stroke="#000" d="M234 1016h926v159H234v-159z" stroke-width="2.5"></path>
  <path fill="red" stroke="#000" d="M234 1016v21h53l11-11v-10h-64" stroke-width="2.5"></path>
  <text font-weight="bold" x="251" y="1030">
    opt
  </text>
  <text font-weight="bold" x="315" y="1030">
    [Partner Wants To Cancel Order]
  </text>
  <path fill="none" stroke="#000" d="M234 1201h926v159H234v-159z" stroke-width="2.5"></path>
  <text font-weight="bold" x="315" y="1215">
    [Uber or Eater Cancels Order]
  </text>
</svg>